<?xml version="1.0" encoding="UTF-8"?>
<svg width="25px" height="16px" viewBox="0 0 25 16" version="1.1" xmlns="http://www.w3.org/2000/svg" xmlns:xlink="http://www.w3.org/1999/xlink">
    <!-- Generator: Sketch 60 (88103) - https://sketch.com -->
    <title>arrow-right</title>
    <desc>Created with Sketch.</desc>
    <g id="Page-1" stroke="none" stroke-width="1" fill="none" fill-rule="evenodd">
        <g id="arrow-right" transform="translate(1.000000, 1.000000)" fill="#FFFFFF" fill-rule="nonzero">
            <path d="M23,6 C23.5522847,6 24,6.44771525 24,7 C24,7.51283584 23.6139598,7.93550716 23.1166211,7.99327227 L23,8 L0,8 C-0.55228475,8 -1,7.55228475 -1,7 C-1,6.48716416 -0.61395981,6.06449284 -0.116621125,6.00672773 L0,6 L23,6 Z" id="Path"></path>
            <path d="M15.2928932,-0.707106781 C15.6533772,-1.06759074 16.2206082,-1.09532028 16.6128994,-0.790295388 L16.7071068,-0.707106781 L23.7071068,6.29289322 C24.0675907,6.65337718 24.0953203,7.22060824 23.7902954,7.61289944 L23.7071068,7.70710678 L16.7071068,14.7071068 C16.3165825,15.0976311 15.6834175,15.0976311 15.2928932,14.7071068 C14.9324093,14.3466228 14.9046797,13.7793918 15.2097046,13.3871006 L15.2928932,13.2928932 L21.585,7 L15.2928932,0.707106781 C14.9324093,0.34662282 14.9046797,-0.220608236 15.2097046,-0.612899443 L15.2928932,-0.707106781 Z" id="Path"></path>
        </g>
    </g>
</svg>