<?xml version="1.0" encoding="UTF-8"?>
<svg width="125px" height="123px" viewBox="0 0 125 123" version="1.1" xmlns="http://www.w3.org/2000/svg" xmlns:xlink="http://www.w3.org/1999/xlink">
    <!-- Generator: Sketch 49.3 (51167) - http://www.bohemiancoding.com/sketch -->
    <title>find-icon</title>
    <desc>Created with Sketch.</desc>
    <defs></defs>
    <g id="Page-1" stroke="none" stroke-width="1" fill="none" fill-rule="evenodd">
        <g id="Landing-Page-v2" transform="translate(-658.000000, -1330.000000)">
            <g id="Group-5" transform="translate(610.000000, 1330.000000)">
                <g id="find-icon" transform="translate(47.000000, 0.000000)">
                    <g id="noun_995435_cc-copy" fill="#000000" fill-rule="nonzero">
                        <g id="Group">
                            <path d="M83.9623866,68.2230758 C91.9047746,59.3653836 92.093879,45.9846146 84.1514911,37.1269224 C79.6129837,32.038461 73.1834316,29.0230764 66.186566,29.0230764 C58.8114915,29.0230764 52.0037305,32.4153841 47.4652231,38.2576917 C40.279253,47.4923069 41.2247754,61.249999 49.7344768,69.5423065 C52.9492528,72.7461526 57.1095513,74.8192295 61.4589542,75.7615372 L60.5134318,84.2423063 L54.2729842,84.2423063 C52.7601484,84.2423063 51.436417,84.9961524 50.4908947,86.1269216 L47.2761186,91.0269215 L39.9010441,91.0269215 L39.9010441,93.8538446 L48.7889544,93.8538446 L53.1383573,87.6346139 C53.5165663,87.2576908 53.8947752,86.8807678 54.4620886,86.8807678 L60.5134318,86.8807678 L71.6705958,86.8807678 L75.2635808,86.8807678 C74.6962674,89.3307677 72.4270137,91.0269215 69.7795511,91.0269215 L69.2122376,91.0269215 L58.2441781,91.0269215 L58.2441781,93.8538446 L64.8628347,93.8538446 C64.6737302,94.4192292 64.4846258,95.1730753 64.4846258,95.9269214 C64.4846258,97.2461522 65.0519392,98.5653829 65.9974616,99.5076906 C65.0519392,100.449998 64.4846258,101.580768 64.4846258,103.08846 C64.4846258,104.407691 65.0519392,105.726921 65.9974616,106.669229 C64.8628347,107.423075 64.2955213,108.742306 64.2955213,110.061537 C64.2955213,111.380767 64.8628347,112.699998 65.8083571,113.642306 C64.8628347,114.584613 64.2955213,115.715383 64.2955213,117.223075 C64.2955213,117.976921 64.4846258,118.730767 64.8628347,119.296152 L54.0838797,119.296152 C53.5165663,119.296152 52.9492528,119.10769 52.5710439,118.919229 L49.9235812,117.78846 C48.7889544,117.223075 47.6543275,117.034613 46.5197007,117.034613 L38.1991038,117.034613 L38.1991038,119.861536 L46.5197007,119.861536 C47.2761186,119.861536 48.0325365,120.049998 48.5998499,120.426921 L51.2473126,121.55769 C52.1928349,121.934613 53.1383573,122.123075 54.0838797,122.123075 L69.2122376,122.123075 L69.4013421,122.123075 L74.5071629,122.123075 C77.1546256,122.123075 79.4238792,119.861536 79.4238792,117.223075 C79.4238792,116.469229 79.2347748,115.715383 78.8565658,115.149998 C81.314924,114.961537 83.2059687,112.88846 83.2059687,110.249998 C83.2059687,108.930767 82.6386553,107.611537 81.6931329,106.669229 C82.6386553,105.726921 83.2059687,104.596152 83.2059687,103.08846 C83.2059687,101.769229 82.6386553,100.449998 81.6931329,99.5076906 C82.6386553,98.5653829 83.2059687,97.2461522 83.2059687,95.9269214 C83.2059687,93.2884599 80.936715,91.0269215 78.2892524,91.0269215 L75.6417898,91.0269215 C76.9655211,89.5192292 77.9110434,87.6346139 77.9110434,85.3730755 L77.9110434,84.0538447 L71.1032824,84.0538447 L70.5359689,75.5730756 C75.8308942,74.630768 80.5585061,71.9923065 83.9623866,68.2230758 Z M74.6962674,119.10769 L69.5904466,119.10769 L69.4013421,119.10769 C68.2667153,119.10769 67.3211929,118.165383 67.3211929,117.034613 C67.3211929,115.903844 68.2667153,114.961537 69.4013421,114.961537 L74.8853719,114.961537 C76.0199987,114.961537 76.9655211,115.903844 76.9655211,117.034613 C76.7764166,118.165383 75.8308942,119.10769 74.6962674,119.10769 Z M80.7476106,110.061537 C80.7476106,111.192306 79.8020882,112.134613 78.6674613,112.134613 L74.6962674,112.134613 L69.2122376,112.134613 C68.0776108,112.134613 67.1320884,111.192306 67.1320884,110.061537 C67.1320884,108.930767 68.0776108,107.98846 69.2122376,107.98846 L78.6674613,107.98846 C79.8020882,107.98846 80.7476106,108.930767 80.7476106,110.061537 Z M78.6674613,100.826921 C79.8020882,100.826921 80.7476106,101.769229 80.7476106,102.899998 C80.7476106,104.030767 79.8020882,104.973075 78.6674613,104.973075 L69.2122376,104.973075 C68.0776108,104.973075 67.1320884,104.030767 67.1320884,102.899998 C67.1320884,101.769229 68.0776108,100.826921 69.2122376,100.826921 L69.4013421,100.826921 L78.6674613,100.826921 Z M80.7476106,95.9269214 C80.7476106,97.0576907 79.8020882,98.1884599 78.4783569,98.1884599 L69.2122376,98.1884599 C68.0776108,98.1884599 66.9429839,97.2461522 66.9429839,95.9269214 C66.9429839,94.7961522 67.8885063,93.8538446 69.0231332,93.8538446 L69.5904466,93.8538446 L78.4783569,93.8538446 C79.8020882,93.8538446 80.7476106,94.7961522 80.7476106,95.9269214 Z M63.5391034,84.0538447 L64.6737302,73.1230757 L63.3499989,72.9346141 C59.000596,72.3692295 55.029402,70.4846142 51.814626,67.2807681 C44.250447,60.1192297 43.3049246,47.86923 49.7344768,39.7653839 C53.7056707,34.6769225 59.7570139,31.6615379 66.186566,31.6615379 C72.2379092,31.6615379 77.9110434,34.2999994 81.8822374,38.8230763 C88.6899985,46.7384607 88.6899985,58.4230759 81.6931329,66.1499989 C78.2892524,69.9192296 73.750745,72.180768 68.8340287,72.9346141 L67.5102974,73.1230757 L68.2667153,83.8653832 L63.5391034,83.8653832 L63.5391034,84.0538447 Z" id="Shape"></path>
                            <path d="M1.5128358,0.565384606 L1.5128358,107.98846 L39.9010441,107.98846 L39.9010441,105.161537 L4.34940291,105.161537 L4.34940291,18.2807689 L122.350595,18.2807689 L122.350595,105.161537 L86.9880582,105.161537 L86.9880582,107.98846 L125.187162,107.98846 L125.187162,0.565384606 L1.5128358,0.565384606 Z M4.34940291,15.4538459 L4.34940291,3.39230763 L122.350595,3.39230763 L122.350595,15.6423074 L4.34940291,15.6423074 L4.34940291,15.4538459 Z" id="Shape"></path>
                            <rect id="Rectangle-path" x="105.709401" y="8.10384602" width="2.83656712" height="2.82692303"></rect>
                            <rect id="Rectangle-path" x="112.895371" y="8.10384602" width="2.83656712" height="2.82692303"></rect>
                            <rect id="Rectangle-path" x="98.5234312" y="8.10384602" width="2.83656712" height="2.82692303"></rect>
                            <rect id="Rectangle-path" x="12.6699998" y="8.10384602" width="76.2091032" height="2.82692303"></rect>
                        </g>
                    </g>
                    <g id="Group-2" transform="translate(47.599999, 41.299999)" fill="#F88029" font-family="GothamHTF-Black, Gotham HTF" font-weight="700">
                        <text id="$$$" opacity="0.5" font-size="10.0100004" text-decoration="line-through">
                            <tspan x="0.710009988" y="17.6100004">$$$</tspan>
                        </text>
                        <text id="$" font-size="19.1100007">
                            <tspan x="22.7563709" y="18">$</tspan>
                        </text>
                    </g>
                </g>
            </g>
        </g>
    </g>
</svg>