<?xml version="1.0" encoding="UTF-8"?>
<svg width="124px" height="122px" viewBox="0 0 124 122" version="1.1" xmlns="http://www.w3.org/2000/svg" xmlns:xlink="http://www.w3.org/1999/xlink">
    <!-- Generator: Sketch 49.3 (51167) - http://www.bohemiancoding.com/sketch -->
    <title>search-icon</title>
    <desc>Created with Sketch.</desc>
    <defs></defs>
    <g id="Page-1" stroke="none" stroke-width="1" fill="none" fill-rule="evenodd">
        <g id="Landing-Page-v2" transform="translate(-279.000000, -1328.000000)" fill-rule="nonzero">
            <g id="Group-6" transform="translate(230.000000, 1328.000000)">
                <g id="search-icon" transform="translate(49.000000, 0.000000)">
                    <g id="Group">
                        <path d="M82.6290244,67.9446154 C90.5778228,59.1230769 90.7670799,45.7969231 82.8182815,36.9753846 C78.276111,31.9076923 71.8413694,28.9046154 64.8388566,28.9046154 C57.4578295,28.9046154 50.6445737,32.2830769 46.1024032,38.1015385 C38.9106333,47.2984615 39.8569188,61 48.3734885,69.2584615 C51.5908593,72.4492308 55.7545156,74.5138462 60.107429,75.4523077 L59.1611434,83.8984615 L52.915659,83.8984615 C51.4016022,83.8984615 50.0768024,84.6492308 49.1305169,85.7753846 L45.9131461,90.6553846 L38.5321191,90.6553846 L38.5321191,93.4707692 L47.427203,93.4707692 L51.7801164,87.2769231 C52.1586306,86.9015385 52.5371448,86.5261538 53.1049161,86.5261538 L59.1611434,86.5261538 L70.3273126,86.5261538 L73.9231976,86.5261538 C73.3554263,88.9661538 71.084341,90.6553846 68.4347415,90.6553846 L67.8669702,90.6553846 L56.8900582,90.6553846 L56.8900582,93.4707692 L63.5140568,93.4707692 C63.3247997,94.0338462 63.1355426,94.7846154 63.1355426,95.5353846 C63.1355426,96.8492308 63.7033139,98.1630769 64.6495995,99.1015385 C63.7033139,100.04 63.1355426,101.166154 63.1355426,102.667692 C63.1355426,103.981538 63.7033139,105.295385 64.6495995,106.233846 C63.5140568,106.984615 62.9462855,108.298462 62.9462855,109.612308 C62.9462855,110.926154 63.5140568,112.24 64.4603424,113.178462 C63.5140568,114.116923 62.9462855,115.243077 62.9462855,116.744615 C62.9462855,117.495385 63.1355426,118.246154 63.5140568,118.809231 L52.7264019,118.809231 C52.1586306,118.809231 51.5908593,118.621538 51.2123451,118.433846 L48.5627456,117.307692 C47.427203,116.744615 46.2916603,116.556923 45.1561177,116.556923 L36.8288051,116.556923 L36.8288051,119.372308 L45.1561177,119.372308 C45.9131461,119.372308 46.6701746,119.56 47.2379459,119.935385 L49.8875453,121.061538 C50.8338308,121.436923 51.7801164,121.624615 52.7264019,121.624615 L67.8669702,121.624615 L68.0562273,121.624615 L73.1661692,121.624615 C75.8157686,121.624615 78.0868539,119.372308 78.0868539,116.744615 C78.0868539,115.993846 77.8975968,115.243077 77.5190826,114.68 C79.9794249,114.492308 81.871996,112.427692 81.871996,109.8 C81.871996,108.486154 81.3042246,107.172308 80.3579391,106.233846 C81.3042246,105.295385 81.871996,104.169231 81.871996,102.667692 C81.871996,101.353846 81.3042246,100.04 80.3579391,99.1015385 C81.3042246,98.1630769 81.871996,96.8492308 81.871996,95.5353846 C81.871996,92.9076923 79.6009107,90.6553846 76.9513112,90.6553846 L74.3017118,90.6553846 C75.6265115,89.1538462 76.572797,87.2769231 76.572797,85.0246154 L76.572797,83.7107692 L69.7595413,83.7107692 L69.19177,75.2646154 C74.4909689,74.3261538 79.2223965,71.6984615 82.6290244,67.9446154 Z M73.3554263,118.621538 L68.2454844,118.621538 L68.0562273,118.621538 C66.9206847,118.621538 65.9743992,117.683077 65.9743992,116.556923 C65.9743992,115.430769 66.9206847,114.492308 68.0562273,114.492308 L73.5446834,114.492308 C74.680226,114.492308 75.6265115,115.430769 75.6265115,116.556923 C75.4372544,117.683077 74.4909689,118.621538 73.3554263,118.621538 Z M79.4116536,109.612308 C79.4116536,110.738462 78.4653681,111.676923 77.3298254,111.676923 L73.3554263,111.676923 L67.8669702,111.676923 C66.7314276,111.676923 65.7851421,110.738462 65.7851421,109.612308 C65.7851421,108.486154 66.7314276,107.547692 67.8669702,107.547692 L77.3298254,107.547692 C78.4653681,107.547692 79.4116536,108.486154 79.4116536,109.612308 Z M77.3298254,100.415385 C78.4653681,100.415385 79.4116536,101.353846 79.4116536,102.48 C79.4116536,103.606154 78.4653681,104.544615 77.3298254,104.544615 L67.8669702,104.544615 C66.7314276,104.544615 65.7851421,103.606154 65.7851421,102.48 C65.7851421,101.353846 66.7314276,100.415385 67.8669702,100.415385 L68.0562273,100.415385 L77.3298254,100.415385 Z M79.4116536,95.5353846 C79.4116536,96.6615385 78.4653681,97.7876923 77.1405683,97.7876923 L67.8669702,97.7876923 C66.7314276,97.7876923 65.595885,96.8492308 65.595885,95.5353846 C65.595885,94.4092308 66.5421705,93.4707692 67.6777131,93.4707692 L68.2454844,93.4707692 L77.1405683,93.4707692 C78.4653681,93.4707692 79.4116536,94.4092308 79.4116536,95.5353846 Z M62.1892571,83.7107692 L63.3247997,72.8246154 L62,72.6369231 C57.6470866,72.0738462 53.6726874,70.1969231 50.4553166,67.0061538 C42.8850325,59.8738462 41.9387469,47.6738462 48.3734885,39.6030769 C52.3478877,34.5353846 58.404115,31.5323077 64.8388566,31.5323077 C70.8950839,31.5323077 76.572797,34.16 80.5471962,38.6646154 C87.360452,46.5476923 87.360452,58.1846154 80.3579391,65.88 C76.9513112,69.6338462 72.4091407,71.8861538 67.488456,72.6369231 L66.1636563,72.8246154 L66.9206847,83.5230769 L62.1892571,83.5230769 L62.1892571,83.7107692 Z" id="Shape" fill="#F88029"></path>
                        <path d="M0.112926891,0.563076923 L0.112926891,107.547692 L38.5321191,107.547692 L38.5321191,104.732308 L2.95178346,104.732308 L2.95178346,18.2061538 L121.048217,18.2061538 L121.048217,104.732308 L85.657138,104.732308 L85.657138,107.547692 L123.887073,107.547692 L123.887073,0.563076923 L0.112926891,0.563076923 Z M2.95178346,15.3907692 L2.95178346,3.37846154 L121.048217,3.37846154 L121.048217,15.5784615 L2.95178346,15.5784615 L2.95178346,15.3907692 Z" id="Shape" fill="#000000"></path>
                        <rect id="Rectangle-path" fill="#000000" x="104.393591" y="8.07076923" width="2.83885656" height="2.81538462"></rect>
                        <rect id="Rectangle-path" fill="#000000" x="111.585361" y="8.07076923" width="2.83885656" height="2.81538462"></rect>
                        <rect id="Rectangle-path" fill="#000000" x="97.2018214" y="8.07076923" width="2.83885656" height="2.81538462"></rect>
                        <rect id="Rectangle-path" fill="#000000" x="11.279096" y="8.07076923" width="76.270613" height="2.81538462"></rect>
                    </g>
                </g>
            </g>
        </g>
    </g>
</svg>