<?xml version="1.0" encoding="UTF-8"?>
<svg width="1210px" height="702px" viewBox="0 0 1210 702" version="1.1" xmlns="http://www.w3.org/2000/svg" xmlns:xlink="http://www.w3.org/1999/xlink">
    <!-- Generator: Sketch 49.3 (51167) - http://www.bohemiancoding.com/sketch -->
    <title>sourced-cheap-flights-logo</title>
    <desc>Created with Sketch.</desc>
    <defs></defs>
    <g id="Page-1" stroke="none" stroke-width="1" fill="none" fill-rule="evenodd">
        <g id="Landing-Page-v2" transform="translate(-115.000000, -1179.000000)">
            <g id="sourced-cheap-flights-logo" transform="translate(115.000000, 1179.000000)">
                <path d="M928.044231,352.559098 C908.262692,352.559098 891.601384,341.489475 885.596199,324.358015 C883.796604,319.222847 883.076066,313.897305 883.385568,308.630556 L859.513977,282.480181 C853.380649,275.761138 850.895528,266.483959 852.847773,257.600825 C854.800719,248.71839 860.949451,241.337941 869.335424,237.808344 L898.240979,225.642677 C901.72253,224.177086 905.419752,223.44849 909.109972,223.44849 C913.508826,223.44849 917.897177,224.483642 921.902501,226.539249 L950.464243,241.195862 C950.112727,238.535541 950.141436,235.80523 950.579081,233.084717 C952.113988,223.546476 958.460186,215.473826 967.367831,211.72656 L996.260782,199.573491 C999.712924,198.121898 1003.40734,197.381403 1007.12557,197.381403 C1008.45531,197.381403 1009.78855,197.476589 1011.11479,197.666962 L1065.38763,205.47295 L1071.22126,203.0177 C1097.84126,191.815096 1126.33018,185.390011 1149.3832,185.390011 C1182.68341,185.390011 1197.39387,198.616027 1203.87101,209.710847 C1208.60738,217.82829 1210.37336,227.406426 1208.84616,236.683604 C1207.51222,244.782151 1202.96071,256.72105 1188.85105,267.616398 C1168.08008,283.642015 1120.92859,302.468633 1023.08875,338.608685 C1003.04182,346.01433 973.328902,349.020402 944.204874,351.166296 C942.511714,351.290879 939.912455,351.482651 938.587617,351.596035 C935.005233,352.235744 931.465563,352.559098 928.044231,352.559098" id="Fill-1" fill="#FEFEFE"></path>
                <path d="M1179.6783,223.819857 C1170.51647,208.124593 1125.82769,210.413967 1082.09124,228.819945 L1069.09284,234.290365 L1007.12515,225.377835 L978.232203,237.530904 L1005.30455,261.135741 L962.834112,279.013295 L909.110953,251.444922 L880.204697,263.610589 L914.974691,301.699163 C911.285872,306.079139 910.636757,311.12612 912.029517,315.100854 C913.689066,319.83428 918.802856,324.562806 928.044512,324.562806 C930.012162,324.562806 932.167475,324.348636 934.516751,323.873404 C935.352127,323.746022 938.804969,323.491959 942.145073,323.246294 C959.066167,321.999071 994.277307,319.405241 1013.38032,312.348146 C1091.26917,283.577344 1152.38677,260.383348 1171.72787,245.461474 C1184.5337,235.573982 1181.55352,227.033099 1179.6783,223.819857" id="Fill-3" fill="#FEFEFE"></path>
                <path d="M96.2547297,537.785262 C71.393011,537.785262 53.2605168,535.574977 39.1893652,530.828953 C14.0020388,522.332864 4.88362442,506.256154 1.66886169,494.266162 C-1.58931539,482.109593 -1.66984201,463.383061 16.4514485,443.200736 C26.5620909,431.94074 41.6184682,420.801127 63.8347124,408.14413 C91.4364369,392.421569 130.639597,374.410335 177.993451,355.663506 C177.971744,354.068433 177.96124,352.47546 177.96124,350.886686 C177.96124,157.408347 335.4412,0.00286959123 529.010389,0.00286959123 C614.660604,0.00286959123 697.204591,31.2989115 761.436124,88.1245167 C816.068885,136.458232 854.067646,200.112064 870.651229,270.103494 C874.681761,268.712092 878.88315,268.007992 883.181171,268.007992 C898.432212,268.007992 912.264585,277.018509 918.42172,290.964722 C926.993254,310.385556 918.161935,333.154712 898.734712,341.723591 C897.85102,342.113436 897.098271,342.447988 896.410644,342.755244 L896.234886,342.832933 C889.460847,345.855103 886.65642,347.031635 855.062675,359.159508 C770.688983,391.548094 663.128526,425.746622 552.196454,455.45739 C441.947108,484.984784 336.357102,508.204676 246.841611,522.607225 C186.027207,532.392531 134.518879,537.640383 97.8834682,537.782463 L96.2547297,537.785262 Z" id="Fill-5" fill="#FEFEFE"></path>
                <path d="M92.5450434,448.219931 C120.489881,432.773131 160.629251,414.833987 209.084569,396.114453 C209.243521,397.116711 209.489303,398.661391 209.868128,401.048751 C210.042486,402.162992 210.231548,403.273034 210.41781,404.384475 C159.737856,423.828406 120.295917,440.400645 91.7096672,456.685925 C80.1831568,463.25239 70.7734462,469.368118 63.3530932,475.150695 C63.2655642,475.357865 63.2025434,475.530741 63.1598293,475.666521 C64.3453212,476.745068 69.9023582,480.578422 89.9429832,482.217588 C94.6191291,479.25561 100.106843,475.998974 106.549673,472.437881 C144.429395,451.499664 174.705304,438.694988 214.224968,423.51415 C218.367538,441.461694 224.011403,458.840218 231.017219,475.512543 C75.8263166,499.82288 51.7782668,483.930944 49.1551997,481.544284 C49.8043142,479.475379 54.824974,469.069961 92.5450434,448.219931 M96.2548698,509.78946 C96.7583362,509.78946 97.2653038,509.788761 97.7750723,509.786661 C132.97921,509.65018 182.986241,504.52551 242.389679,494.967672 C330.980165,480.713502 435.603151,457.700081 544.946398,428.415552 C654.961166,398.950449 761.529395,365.073875 845.020796,333.024741 C877.113105,320.705795 878.902196,319.907909 884.828255,317.264386 C885.593608,316.922834 886.431085,316.549088 887.426814,316.11025 C892.733869,313.769084 895.137763,307.571466 892.796189,302.266922 C890.454615,296.963078 884.254766,294.55822 878.946311,296.900087 C877.920472,297.352222 877.056386,297.737867 876.266525,298.089917 C871.525258,300.205716 869.617127,301.056095 849.318817,308.876081 C828.654986,150.611125 692.893406,27.9990915 529.009829,27.9990915 C350.885645,27.9990915 205.969939,172.846258 205.969939,350.886896 C205.969939,358.822366 206.259835,366.691345 206.826322,374.484735 C152.285992,395.360661 107.716959,415.37011 77.7050376,432.467275 C39.5445226,454.207578 24.4377286,471.031781 28.7231453,487.020304 C32.9399392,502.747064 53.7886314,509.78946 96.2548698,509.78946" id="Fill-7" fill="#FEFEFE"></path>
                <path d="M529.010109,701.769033 C417.802847,701.769033 313.941712,649.291208 247.648697,560.497657 C187.098281,570.221372 135.803524,575.434929 99.2843513,575.577009 L97.6549126,575.579809 C72.7938941,575.579809 54.6606997,573.369523 40.589548,568.6235 C15.4036221,560.12741 6.28380729,544.0514 3.06904456,532.061408 C0.247811921,521.534907 -0.366291088,505.22933 12.7259369,487.311882 C17.5827425,480.664929 25.1207344,476.490724 33.3351499,475.900008 C34.0066719,475.851715 34.6781939,475.827918 35.3469149,475.827918 C42.737158,475.827918 49.8557112,478.750002 55.1200515,483.997854 C55.5240851,484.255418 57.2837668,485.267474 61.4879566,486.341121 C68.2416892,488.067075 74.0017934,492.211884 77.7872448,497.833484 C82.7133733,498.296118 89.3291603,498.647468 98.0687494,498.647468 C130.811573,498.646768 177.217314,493.850351 236.000347,484.391898 C322.972598,470.397392 425.902424,447.745819 533.661747,418.88613 C642.071585,389.851466 746.904641,356.538311 828.847829,325.083392 C859.728038,313.22918 861.239837,312.555176 866.250694,310.319695 L866.532887,310.194413 C867.277233,309.86266 868.090902,309.499412 869.037615,309.081571 C873.972847,306.905581 879.201475,305.802538 884.581354,305.802538 C899.832395,305.802538 913.664768,314.813755 919.821903,328.759268 C928.393437,348.178702 919.562117,370.948558 900.136296,379.517438 C899.2428,379.911482 898.489351,380.246734 897.801724,380.55399 L897.635769,380.62748 C892.848987,382.763575 890.07467,383.964604 878.034189,388.640638 C869.17206,471.146285 831.437986,547.495609 770.595572,605.254881 C705.034299,667.492816 619.237737,701.769033 529.010109,701.769033" id="Fill-9" fill="#FEFEFE"></path>
                <path d="M880.346424,334.694563 C879.320584,335.146698 878.457199,335.532343 877.667338,335.884393 C872.132708,338.354341 870.461956,339.099035 838.889919,351.217809 C756.062338,383.01218 650.237755,416.647988 540.910613,445.928317 C432.244491,475.030872 328.347645,497.888916 240.451788,512.031801 C78.0478009,538.163978 53.2231944,521.766714 50.5560127,519.33876 C50.7968924,518.57027 51.6441725,516.647643 54.5508333,513.465197 C45.8140451,511.232515 39.4769502,508.045869 35.3448843,503.82337 C29.974809,511.173023 28.3159606,518.069141 30.1239583,524.81478 C34.3400521,540.54154 55.1894444,547.583937 97.6549826,547.583937 C98.1584491,547.583937 98.6661169,547.583237 99.1751852,547.581137 C135.080255,547.441857 185.06908,542.210802 243.790492,532.762148 C249.2607,531.882373 254.792529,530.968303 260.383177,530.022038 C318.38125,616.629801 417.139097,673.773161 529.010179,673.773161 C701.10467,673.773161 842.193611,538.567121 851.549404,368.850397 C878.723287,358.406485 880.636319,357.554006 886.228368,355.058862 C886.993721,354.71731 887.831198,354.343564 888.826927,353.904726 C894.133981,351.56426 896.537876,345.365943 894.196302,340.061398 C891.855428,334.757554 885.654878,332.353396 880.346424,334.694563" id="Fill-11" fill="#FEFEFE"></path>
                <path d="M538.603421,410.585242 C615.897072,389.884291 689.347153,367.70445 755.197622,345.24675 C747.546193,225.099765 647.646968,130.014809 525.511893,130.014809 C398.389069,130.014809 295.336002,233.019136 295.336002,360.081136 C295.336002,396.714618 303.916638,431.339386 319.155076,462.081106 C387.256089,448.627623 461.727807,431.174209 538.603421,410.585242" id="Fill-13" fill="#348CCB"></path>
                <path d="M217.426917,387.991551 C217.426917,388.919618 217.352692,389.795894 217.209145,390.630175 C220.998097,420.619503 229.017148,449.290918 240.648693,476.030609 C276.990707,470.141648 316.043317,462.771698 357.016662,454.095734 C338.868063,423.945429 328.422709,388.636859 328.422709,350.885636 C328.422709,240.15651 418.228797,150.392897 529.010319,150.392897 C639.791841,150.392897 729.59863,240.15651 729.59863,350.885636 C729.59863,351.798306 729.575522,352.706077 729.563618,353.615947 C767.585487,341.060436 803.372218,328.369844 836.234781,315.755541 C837.878925,315.12493 839.512565,314.49362 841.139903,313.86441 C822.809943,157.814639 690.057958,36.7416861 529.010319,36.7416861 C355.430638,36.7416861 214.717021,177.388751 214.717021,350.885636 C214.717021,363.441148 215.457866,375.821684 216.890539,387.991551 L217.426917,387.991551 Z" id="Fill-15" fill="#FEFEFE"></path>
                <path d="M529.010109,141.650582 C413.582552,141.650582 319.675908,235.513511 319.675908,350.886476 C319.675908,389.168223 330.023929,425.075908 348.05769,455.978606 C354.053773,454.727884 360.091869,453.449166 366.170578,452.142452 C347.802806,422.737541 337.168391,388.032285 337.168391,350.886476 C337.168391,245.154638 423.22894,159.135491 529.010109,159.135491 C634.791979,159.135491 720.852528,245.154638 720.852528,350.886476 C720.852528,352.767108 720.817517,354.638642 720.763599,356.505276 C726.676354,354.574251 732.536591,352.639027 738.34291,350.701003 C738.242077,235.413425 644.375347,141.650582 529.010109,141.650582" id="Fill-17" fill="#231F20"></path>
                <path d="M933.184561,317.002273 C937.257807,316.175691 987.743797,314.35805 1010.95297,305.784271 C1080.76815,279.995745 1148.24105,254.741942 1167.4484,239.922953 C1192.93963,220.238957 1144.23223,210.262578 1084.80988,235.270016 C1080.0259,237.285029 1075.07947,239.364433 1070.0189,241.494929 L1008.05051,232.582399 L991.29327,239.630395 L1018.36212,263.234532 C998.044902,271.785914 978.479734,280.020941 962.542466,286.731585 L908.817906,259.162512 L892.060666,266.214708 L925.202622,302.519936 C913.370111,308.568474 917.356528,320.228813 933.184561,317.002273" id="Fill-19" fill="#FEFEFE"></path>
                <path d="M926.021543,310.363439 C927.106902,310.604204 928.984222,310.716188 931.785148,310.14507 L931.79145,310.14367 C933.046265,309.888206 935.167966,309.72443 941.115733,309.285592 C956.125194,308.18045 991.276115,305.590819 1008.52492,299.218226 C1068.87787,276.925702 1143.9875,249.180954 1163.16894,234.382262 C1165.58964,232.513528 1166.64139,231.195616 1167.08603,230.483118 C1165.13449,229.179203 1158.29883,226.620368 1142.99107,227.621925 C1126.21492,228.721469 1106.51811,233.728555 1087.52713,241.720717 L1070.94565,248.698723 L1008.97587,239.785493 L1004.35294,241.729816 L1031.42039,265.331853 L962.249419,294.448406 L908.525559,266.879333 L903.917336,268.818757 L936.557226,304.574563 L928.390426,308.750168 C927.258152,309.328986 926.501902,309.902904 926.021543,310.363439 M928.044512,324.563016 C918.802856,324.563016 913.689066,319.83379 912.030218,315.101064 C910.636757,311.12633 911.285872,306.079349 914.974691,301.699373 L880.204697,263.610099 L909.110953,251.444432 L962.834112,279.013504 L1005.30455,261.135951 L978.232903,237.530414 L1007.12515,225.377345 L1069.09284,234.290575 L1082.09124,228.819455 C1125.82769,210.413477 1170.51647,208.124803 1179.6783,223.820067 C1181.55352,227.032609 1184.5337,235.574192 1171.72857,245.461684 C1152.38677,260.383558 1091.26917,283.577554 1013.38032,312.348356 C994.277307,319.405451 959.066167,321.999281 942.145073,323.245804 C938.804969,323.492168 935.352127,323.746232 934.516751,323.873614 C932.167475,324.348147 930.012162,324.563016 928.044512,324.563016" id="Fill-21" fill="#231F20"></path>
                <path d="M293.045054,385.53714 L285.878185,380.428568 C288.467641,376.607812 289.667838,372.475601 289.339429,368.252402 C289.12866,365.541689 288.076212,364.153786 286.511895,364.275569 L286.40756,364.283968 C284.89436,364.401551 284.152815,365.664871 283.390263,370.708353 C282.220176,378.614426 280.495506,384.780548 272.984123,385.363565 L272.879788,385.372664 C266.098747,385.899689 260.776987,380.910099 260.095662,372.150147 C259.613903,365.945531 260.90653,360.96714 263.78028,356.75584 L271.320373,361.258999 C269.231582,364.778097 268.263162,368.525364 268.515245,371.758203 C268.705008,374.208554 269.841484,375.326995 271.146715,375.226209 L271.25035,375.21851 C272.920402,375.088329 273.552711,373.780215 274.30686,368.633148 C275.480448,360.095764 277.787711,354.671537 284.62127,354.141013 L284.725604,354.132614 C292.18517,353.553796 297.077687,359.101206 297.766715,367.965443 C298.269481,374.430422 296.712867,380.741423 293.045054,385.53714" id="Fill-23" fill="#231F20"></path>
                <path d="M279.778959,321.959667 L279.673924,321.950568 C274.405383,321.537627 269.517067,324.983236 269.078021,330.562141 C268.643878,336.088554 272.839665,340.143077 278.107506,340.556018 L278.211841,340.565116 C283.480383,340.977358 288.370099,337.531749 288.804242,332.004636 C289.242587,326.426431 285.0468,322.372608 279.778959,321.959667 M277.501806,350.948137 L277.397472,350.939039 C266.912205,350.116656 259.073814,341.003254 259.957506,329.741158 C260.842599,318.479763 269.895892,310.796957 280.380458,311.62004 L280.484792,311.627739 C290.968658,312.450121 298.80845,321.564223 297.924057,332.824919 C297.039665,344.087015 287.986372,351.77122 277.501806,350.948137" id="Fill-25" fill="#231F20"></path>
                <path d="M283.678128,307.384103 L263.727833,302.401513 L266.226259,292.406237 L285.973487,297.337734 C291.100582,298.618552 294.184401,296.638534 295.173828,292.681997 C296.163255,288.724061 294.474997,285.553513 289.499852,284.31049 L269.499841,279.315301 L271.997567,269.318626 L291.693678,274.239625 C303.16697,277.104316 306.556091,284.904705 304.031756,295.002167 C301.508122,305.098929 294.795003,310.160608 283.678128,307.384103" id="Fill-27" fill="#231F20"></path>
                <path d="M297.664972,252.220481 C299.005915,249.038734 298.23496,246.556888 295.775047,245.521735 L295.678415,245.481141 C293.025938,244.3634 290.862923,245.723307 289.542286,248.85746 L286.962634,254.978088 L295.065012,258.390102 L297.664972,252.220481 Z M274.920053,260.919542 L281.643675,244.963915 C283.817894,239.80635 286.671337,236.807977 289.940718,235.516661 C292.702431,234.352027 295.733733,234.436015 299.061233,235.837915 L299.157865,235.877809 C304.317871,238.051 306.58382,242.239903 306.601326,247.185398 L321.761337,244.089739 L317.210533,254.887101 L304.121806,257.378746 L304.081893,257.476033 L302.395736,261.476663 L312.619115,265.781049 L308.678913,275.133117 L274.920053,260.919542 Z" id="Fill-29" fill="#231F20"></path>
                <path d="M306.289303,234.638216 L306.200373,234.582924 C297.094563,229.015217 294.239719,217.643937 300.029233,208.185484 C303.934424,201.805193 309.12454,199.338044 314.655668,198.919504 L315.713718,208.517937 C312.389719,208.937877 309.705032,210.116509 307.875327,213.105083 C305.198342,217.47736 307.019644,222.821799 311.572549,225.605302 L311.661479,225.660595 C316.348128,228.526686 321.892561,227.685406 324.568845,223.313129 C326.562405,220.056493 326.219291,217.210698 325.089117,213.944964 L333.71877,210.269787 C335.977717,215.697514 336.537902,221.497588 332.305703,228.411903 C326.843898,237.334932 315.618487,240.342403 306.289303,234.638216" id="Fill-31" fill="#231F20"></path>
                <polygon id="Fill-33" fill="#231F20" points="313.225306 189.520613 332.069235 166.885137 338.706029 172.405251 326.288824 187.320826 330.552534 190.867921 341.798251 177.357745 347.952586 182.477516 336.706168 195.985592 341.171544 199.699263 353.756104 184.582116 360.392898 190.10293 341.382314 212.939277"></polygon>
                <path d="M366.738256,172.044312 C371.272955,168.010787 372.055814,162.834324 368.124714,158.418653 L368.056091,158.340264 C364.159303,153.964488 358.889361,154.102368 354.354662,158.135894 L351.266641,160.883002 L363.650235,174.790721 L366.738256,172.044312 Z M337.701057,160.907499 L348.254946,151.520436 C358.026676,142.828374 368.703105,143.412791 375.729928,151.304167 L375.799251,151.382556 C382.826074,159.274631 382.2981,170.246268 372.447943,179.00762 L362.050906,188.256103 L337.701057,160.907499 Z" id="Fill-35" fill="#231F20"></path>
                <path d="M391.106872,140.845417 L391.055755,140.75443 C385.827126,131.452055 388.889238,120.133967 398.561536,114.702741 C405.085593,111.040162 410.819788,111.420208 415.853052,113.752976 L412.087907,122.645909 C408.981681,121.390288 406.063116,121.109628 403.005905,122.825783 C398.534927,125.336326 397.51469,130.888635 400.128654,135.540872 L400.180471,135.631859 C402.871461,140.419177 408.120396,142.391496 412.592074,139.880954 C415.921675,138.01012 417.011935,135.358898 417.621137,131.957383 L426.94752,132.95964 C426.268995,138.799608 423.925321,144.134948 416.854383,148.105482 C407.729667,153.228753 396.462942,150.375959 391.106872,140.845417" id="Fill-37" fill="#231F20"></path>
                <polygon id="Fill-39" fill="#231F20" points="419.32676 104.654272 428.841506 101.114876 433.621986 113.960146 445.834723 109.418493 441.054243 96.5753228 450.568988 93.035927 463.341911 127.352739 453.827866 130.891434 448.973161 117.850192 436.760424 122.392545 441.614428 135.432388 432.099683 138.970384"></polygon>
                <polygon id="Fill-41" fill="#231F20" points="459.471802 90.6426179 488.291229 84.5254893 490.085222 92.9669868 471.094244 96.9977127 472.245424 102.42124 489.44521 98.77126 491.10826 106.599645 473.908474 110.249625 475.115673 115.929316 494.362236 111.843998 496.156229 120.286195 467.081217 126.457216"></polygon>
                <path d="M519.260226,104.170361 L514.596685,94.0092084 L511.059115,104.634395 L519.260226,104.170361 Z M509.10897,82.2732802 L518.8779,81.719659 L536.533536,117.649041 L525.667344,118.264253 L522.632541,111.888162 L508.528479,112.688148 L506.287738,119.363097 L495.630215,119.966411 L509.10897,82.2732802 Z" id="Fill-43" fill="#231F20"></path>
                <path d="M554.037223,101.276483 C557.630111,101.629233 560.001795,99.9697693 560.282587,97.1064772 L560.293091,97.002192 C560.599792,93.8792369 558.575423,91.9986048 554.930018,91.6409557 L550.190851,91.1762219 L549.244839,100.80615 L554.037223,101.276483 Z M540.920487,81.7002718 L556.544052,83.2330534 C565.762599,84.1366247 571.234908,89.4551671 570.442946,97.5243176 L570.432443,97.6286028 C569.589364,106.217779 562.53033,110.098027 553.468635,109.209153 L548.468982,108.719223 L547.446644,119.13024 L537.343004,118.139881 L540.920487,81.7002718 Z" id="Fill-45" fill="#231F20"></path>
                <polygon id="Fill-47" fill="#231F20" points="593.642666 89.3631302 621.690438 97.8508211 619.112185 106.361609 600.780825 100.813499 598.976329 106.770351 615.555009 111.787936 613.113302 119.847288 596.535322 114.831802 592.744269 127.346719 583.027856 124.405038"></polygon>
                <polygon id="Fill-49" fill="#231F20" points="628.213864 100.496584 637.460421 104.682688 626.016538 129.933691 642.174379 137.249749 638.503766 145.348995 613.099367 133.845434"></polygon>
                <polygon id="Fill-51" fill="#231F20" points="659.062352 115.332581 667.902074 120.428555 649.599424 152.146637 640.760402 147.050663"></polygon>
                <path d="M663.658321,138.745016 L663.720642,138.661028 C670.06824,130.08375 681.777511,128.333299 690.905729,135.083837 C696.080439,138.908093 698.556458,143.212479 699.677528,148.205568 L690.619334,150.418653 C689.823171,147.098326 688.466822,144.533891 685.564363,142.387297 C681.316058,139.246144 675.389299,140.393981 672.059698,144.89224 L671.997378,144.976228 C668.481516,149.727851 669.283981,155.590216 673.953124,159.042824 C675.929878,160.505616 677.755381,161.204816 679.56688,161.307002 L682.211655,157.734011 L676.406736,153.440822 L680.825896,147.470673 L694.369774,157.486246 L684.567933,170.730459 C679.557077,170.992922 673.761961,169.765997 668.419895,165.81506 C659.249664,159.034426 657.06074,147.658246 663.658321,138.745016" id="Fill-53" fill="#231F20"></path>
                <polygon id="Fill-55" fill="#231F20" points="709.880461 150.970034 716.980808 158.221701 707.181769 167.806136 716.293881 177.11411 726.092921 167.531075 733.192568 174.782742 707.012313 200.388595 699.911966 193.136228 709.860855 183.406214 700.748042 174.09754 690.799854 183.827554 683.699506 176.575887"></polygon>
                <polygon id="Fill-57" fill="#231F20" points="737.04174 194.4575 730.609414 185.551268 737.821798 180.347509 756.627915 206.3852 749.415531 211.589659 742.983204 202.684128 720.496671 218.909916 714.555207 210.682588"></polygon>
                <path d="M730.95988,223.948988 L739.576228,225.752632 C738.738051,230.290785 739.297536,234.557377 741.294596,238.294145 C742.57602,240.693403 744.096922,241.541682 745.48128,240.801888 L745.573711,240.752895 C746.911853,240.038297 747.08341,238.583204 745.757872,233.658705 C743.653676,225.947204 742.75808,219.606807 749.403977,216.059712 L749.496407,216.010019 C755.495991,212.807975 762.373664,215.243629 766.514133,222.993625 C769.447403,228.483642 770.263172,233.561419 769.321361,238.570606 L760.60698,237.471062 C761.106245,233.410241 760.488641,229.590185 758.960036,226.729692 C757.801853,224.561401 756.31176,223.992382 755.158479,224.608295 L755.065348,224.657987 C753.58856,225.446075 753.533942,226.898368 754.909197,231.915254 C757.262675,240.204873 757.327096,246.098033 751.281297,249.326673 L751.189567,249.376366 C744.589885,252.898965 737.880968,249.780209 733.690782,241.937826 C730.634972,236.217541 729.525806,229.812753 730.95988,223.948988" id="Fill-59" fill="#231F20"></path>
                <path d="M384.227657,295.560267 C384.227657,353.232052 431.00242,399.984692 488.701494,399.984692 C546.401269,399.984692 593.175331,353.232052 593.175331,295.560267 C593.175331,237.888483 546.401269,191.135843 488.701494,191.135843 C431.00242,191.135843 384.227657,237.888483 384.227657,295.560267" id="Fill-61" fill="#E45E25"></path>
                <path d="M488.701634,195.50665 C433.505888,195.50665 388.600743,240.391256 388.600743,295.560197 C388.600743,350.729838 433.505888,395.613745 488.701634,395.613745 C543.896681,395.613745 588.801825,350.729838 588.801825,295.560197 C588.801825,240.391256 543.896681,195.50665 488.701634,195.50665 M488.701634,404.3555 C428.683394,404.3555 379.854852,355.550052 379.854852,295.560197 C379.854852,235.569643 428.683394,186.764195 488.701634,186.764195 C548.719875,186.764195 597.547716,235.569643 597.547716,295.560197 C597.547716,355.550052 548.719875,404.3555 488.701634,404.3555" id="Fill-63" fill="#231F20"></path>
                <polyline id="Fill-65" fill="#231F20" points="625.23725 319.937865 539.643755 260.908973 437.236301 332.512973 508.085022 398.214014"></polyline>
                <path d="M538.603421,410.585242 C609.377217,391.630542 676.926447,371.434919 738.373861,350.922941 L668.228872,280.280604 L602.712414,322.929029 L594.621239,318.222899 L505.934821,384.678433 L457.025053,339.854018 L436.707136,323.282478 L424.041349,324.575894 L399.487732,307.720195 L321.692014,373.053089 L357.016592,454.095944 C357.016592,454.095944 460.694966,431.45067 538.603421,410.585242" id="Fill-67" fill="#231F20"></path>
                <polygon id="Fill-69" fill="#FEFEFE" points="592.764015 320.946701 602.317273 317.951128 539.794304 276.943269 518.057719 292.035919 515.688836 315.747842 502.455161 311.502246 490.113581 335.550821 448.706093 372.463563 464.208517 367.78053 539.671064 328.6792 567.411434 340.451523 566.639079 330.354061 571.974843 326.392625 570.486851 315.749941 580.529571 319.842258 588.651556 319.426518"></polygon>
                <polygon id="Fill-71" fill="#FEFEFE" points="452.130995 393.954351 412.794091 374.069484 414.97041 395.358351"></polygon>
                <polygon id="Fill-73" fill="#FEFEFE" points="399.552083 321.889957 339.430208 373.32213 379.498854 376.146928 386.351319 361.962048 399.718038 364.803644 392.511956 344.391051"></polygon>
                <path d="M397.542979,445.462674 L359.94405,428.069451 L388.032435,447.59387 C391.19328,446.89047 394.363228,446.180072 397.542979,445.462674" id="Fill-75" fill="#FEFEFE"></path>
                <path d="M500.038732,420.701671 L514.394178,415.631593 L514.433391,416.973302 C522.461545,414.877801 530.517008,412.751503 538.603281,410.585312 C578.740549,399.836243 617.835873,388.686132 655.376683,377.307153 L652.633177,358.253067 L668.837933,303.107222 L572.183582,366.467797 L562.971336,358.966965 L471.216504,427.983434 C480.769062,425.610072 490.378339,423.182818 500.038732,420.701671" id="Fill-77" fill="#FEFEFE"></path>
                <path d="M687.025816,367.545433 L679.968883,357.222604 L681.209693,369.364474 C683.152135,368.75836 685.092477,368.152247 687.025816,367.545433" id="Fill-79" fill="#FEFEFE"></path>
                <path d="M710.468516,360.080996 L702.940327,354.212332 L706.348354,361.410107 C707.727109,360.96777 709.095362,360.524033 710.468516,360.080996" id="Fill-81" fill="#FEFEFE"></path>
                <path d="M544.946538,458.511335 C476.261532,476.906815 409.441943,492.825347 347.287296,505.654519 C389.495849,557.223873 453.651758,590.147883 525.511613,590.147883 C640.364281,590.147883 735.543945,506.061162 752.850866,396.122222 C688.828702,417.644856 617.642469,439.041508 544.946538,458.511335" id="Fill-83" fill="#348CCB"></path>
                <path d="M711.612554,409.649545 C686.729828,486.720467 614.290181,542.636201 529.010389,542.636201 C480.072612,542.636201 435.365633,524.214826 401.439417,493.958835 C394.525332,495.515414 387.656761,497.037697 380.834406,498.526385 C418.756142,536.551968 471.178271,560.121111 529.010389,560.121111 C626.390881,560.121111 708.434203,493.307228 731.712698,403.138373 C725.078005,405.312963 718.374689,407.483354 711.612554,409.649545" id="Fill-85" fill="#231F20"></path>
                <path d="M544.946538,458.511335 C480.419506,475.792573 417.54012,490.888723 358.626144,503.290256 L433.964049,575.858019 L778.917683,522.384236 L772.548378,389.416478 C703.588881,413.181592 625.190264,437.020196 544.946538,458.511335" id="Fill-87" fill="#231F20"></path>
                <path d="M721.79602,406.369393 C697.719261,490.108264 620.532045,551.379636 529.010389,551.379636 C475.504302,551.379636 426.897033,530.43442 390.933144,496.305181 C346.723329,506.104485 304.425847,514.503289 264.952398,521.300021 C320.935905,607.787401 418.279984,665.030846 529.010389,665.030846 C698.236032,665.030846 836.219446,531.349889 843.0362,363.877746 C806.442102,377.876451 765.488364,392.211809 721.79602,406.369393" id="Fill-89" fill="#FEFEFE"></path>
                <path d="M365.728942,533.299461 L356.2247,537.549956 L362.558294,543.200951 L365.728942,533.299461 Z M361.952594,551.789428 L360.265036,550.283242 L361.916182,545.157872 L354.350881,538.409433 L349.424052,540.61062 L347.816321,539.176524 L366.644845,530.835812 L368.11323,532.146726 L361.952594,551.789428 Z" id="Fill-91" fill="#231F20"></path>
                <path d="M383.382478,555.033325 C386.229619,558.184976 386.903942,560.533142 385.229689,562.868009 C383.354469,565.484237 379.982154,565.622117 376.97536,563.468524 C374.574266,561.748869 373.179405,559.538584 372.523988,556.6158 L374.482536,556.120271 C375.03922,558.678406 376.041951,560.47575 378.141245,561.979836 C380.174718,563.436328 382.274712,563.336943 383.375476,561.801361 C384.397814,560.374265 384.214353,559.032556 381.515661,556.085276 C378.574689,552.832839 377.779926,550.562362 379.57812,548.05392 C381.313994,545.632265 384.651998,545.405497 387.529949,547.465303 C389.736378,549.046378 390.866552,550.804528 391.518468,553.136596 L389.578126,553.743409 C388.993433,551.590516 387.943786,550.08643 386.386471,548.970089 C384.41812,547.56049 382.387449,547.743164 381.395921,549.126867 C380.357478,550.57566 380.562646,551.933467 383.382478,555.033325" id="Fill-93" fill="#231F20"></path>
                <path d="M402.664122,559.711809 C399.020818,557.509923 394.661877,558.855131 392.459649,562.496712 C390.25672,566.139693 391.109602,570.694644 394.753607,572.896531 C398.396911,575.097017 402.754452,573.752509 404.95738,570.109528 C407.159608,566.467947 406.308127,561.913695 402.664122,559.711809 M393.70256,574.530098 C388.852056,571.598916 387.894139,565.830337 390.564822,561.414666 C393.234805,556.998995 398.863266,555.147059 403.714469,558.077542 C408.565673,561.008724 409.522889,566.777302 406.852207,571.192274 C404.182224,575.609344 398.553763,577.460581 393.70256,574.530098" id="Fill-95" fill="#231F20"></path>
                <path d="M423.811953,581.222125 C421.405958,586.086432 417.366322,587.235668 413.190842,585.173762 C409.063678,583.133553 407.49866,579.216211 409.833232,574.495383 L414.632619,564.789166 L416.516942,565.721433 L411.777075,575.306567 C409.997086,578.906855 410.902486,581.877232 414.099742,583.455507 C417.17656,584.97639 420.053111,584.082617 421.856907,580.434737 L426.655593,570.729919 L428.540616,571.661487 L423.811953,581.222125 Z" id="Fill-97" fill="#231F20"></path>
                <path d="M439.006416,578.09651 L433.672753,575.959714 L430.860623,582.969216 L436.170479,585.096913 C438.762736,586.134865 441.149825,585.544849 442.051023,583.298869 C442.911607,581.150875 441.796138,579.214951 439.006416,578.09651 Z M437.416891,595.422542 L435.097024,586.700384 L430.157591,584.721766 L427.465901,591.43591 L425.514356,590.654121 L432.444547,573.375683 L439.876804,576.354458 C443.679761,577.877441 445.302898,580.90521 444.055785,584.016267 C442.897602,586.903356 440.248627,587.790829 437.334263,587.195914 L439.813083,596.383505 L437.416891,595.422542 Z" id="Fill-99" fill="#231F20"></path>
                <path d="M452.141218,600.718198 C447.012023,599.109127 444.496791,593.886471 446.106623,588.760401 C447.70105,583.686124 452.758122,580.727645 457.988151,582.369611 C461.212017,583.380967 462.783336,585.128618 464.03395,587.3613 L462.201444,588.402052 C461.149696,586.511621 459.793348,584.970441 457.38035,584.213149 C453.445049,582.978525 449.503446,585.225904 448.204517,589.363015 C446.905587,593.500126 448.863435,597.654734 452.773527,598.881659 C455.211033,599.64665 457.105859,599.209912 459.31719,598.119468 L460.230992,599.827225 C457.787185,601.12414 455.365084,601.730253 452.141218,600.718198" id="Fill-101" fill="#231F20"></path>
                <polygon id="Fill-103" fill="#231F20" points="480.516348 590.512881 469.451991 587.92745 468.003912 594.116668 477.902384 596.431238 477.46614 598.295773 467.566968 595.981202 466.083177 602.327198 477.276377 604.943426 476.840133 606.80796 463.599456 603.713001 467.840758 585.584183 480.952593 588.648347"></polygon>
                <path d="M490.616347,592.273621 L486.304322,591.608715 L484.057279,606.168741 L488.369304,606.833646 C493.023743,607.550344 496.481486,604.855028 497.113795,600.755012 C497.746804,596.655696 495.270086,592.991018 490.616347,592.273621 M488.073106,608.752073 L481.683494,607.766614 L484.522933,589.369734 L490.912545,590.354494 C496.697157,591.246167 500.082076,595.831214 499.278211,601.034972 C498.475745,606.238731 493.858419,609.643746 488.073106,608.752073" id="Fill-105" fill="#231F20"></path>
                <path d="M519.781969,595.50583 L515.171645,604.834801 L523.654949,605.152556 L519.781969,595.50583 Z M528.665105,612.155058 L526.404758,612.07037 L524.408398,607.070983 L514.276749,606.691637 L511.885458,611.527248 L509.730846,611.446059 L518.917183,593.024684 L520.884133,593.098173 L528.665105,612.155058 Z" id="Fill-107" fill="#231F20"></path>
                <path d="M538.81265,595.108707 L534.453709,595.309578 L535.132933,610.026382 L539.491874,609.82551 C544.195329,609.609941 547.052974,606.283315 546.861111,602.139205 C546.670648,597.994396 543.517505,594.892437 538.81265,595.108707 M539.581504,611.766334 L533.123269,612.063791 L532.264785,593.466041 L538.72372,593.169283 C544.571354,592.899821 548.79655,596.726176 549.03883,601.985927 C549.281111,607.245678 545.428437,611.496872 539.581504,611.766334" id="Fill-109" fill="#231F20"></path>
                <polygon id="Fill-111" fill="#231F20" points="565.050113 590.7316 567.294355 590.45444 561.642787 610.044649 559.793476 610.272117 549.548389 592.642328 551.872457 592.356069 560.41248 607.462717"></polygon>
                <polygon id="Fill-113" fill="#231F20" points="583.805954 589.11518 572.665271 591.345063 573.913784 597.576975 583.880178 595.582259 584.256903 597.460792 574.289108 599.454108 575.569131 605.843498 586.840757 603.588419 587.216081 605.465551 573.884374 608.134271 570.227765 589.879472 583.43063 587.236648"></polygon>
                <polygon id="Fill-115" fill="#231F20" points="600.227222 582.721031 602.202575 582.179308 607.134306 600.131751 605.518171 600.575488 589.8764 589.036932 593.920237 603.758634 591.944884 604.300357 587.013154 586.348615 588.912182 585.826489 604.180729 597.109582"></polygon>
                <polygon id="Fill-117" fill="#231F20" points="619.467833 595.771022 617.467972 596.498919 611.766687 580.826751 605.890344 582.963547 605.226525 581.138207 618.979771 576.140219 619.643591 577.964859 613.767248 580.099555"></polygon>
                <path d="M640.263447,578.408876 C642.489483,583.355771 640.806827,587.202423 636.561323,589.111751 C632.363436,590.998682 628.344107,589.715065 626.183193,584.913049 L621.742325,575.042355 L623.658858,574.181478 L628.045808,583.929689 C629.692753,587.591567 632.561601,588.779998 635.812776,587.318606 C638.942811,585.912507 640.080687,583.126204 638.411335,579.415332 L633.970467,569.546038 L635.887001,568.683761 L640.263447,578.408876 Z" id="Fill-119" fill="#231F20"></path>
                <path d="M647.490116,564.693139 L642.44985,567.453546 L646.081251,574.078102 L651.098409,571.329594 C653.549219,569.987185 654.60867,567.769901 653.444885,565.646404 C652.332217,563.618093 650.127188,563.249245 647.490116,564.693139 Z M659.87371,576.926697 L651.657194,573.178031 L646.990151,575.734067 L650.468201,582.078663 L648.625192,583.088619 L639.672032,566.761345 L646.696054,562.913993 C650.290342,560.945873 653.661957,561.615678 655.273189,564.554559 C656.770284,567.28347 655.772454,569.891999 653.46169,571.764932 L662.136858,575.687173 L659.87371,576.926697 Z" id="Fill-121" fill="#231F20"></path>
                <polygon id="Fill-123" fill="#231F20" points="668.199532 551.963003 658.668682 558.141023 662.127825 563.472863 670.654544 557.945751 671.697189 559.552722 663.17047 565.078434 666.716442 570.545356 676.35863 564.295246 677.401274 565.901517 665.995904 573.295264 655.863554 557.676989 667.157588 550.356732"></polygon>
                <path d="M680.502179,550.799699 C684.363956,549.028251 686.806363,549.087742 688.535235,551.383415 C690.471375,553.954149 689.592584,557.211485 686.636907,559.435068 C684.277127,561.210715 681.749992,561.87842 678.764205,561.629256 L678.878343,559.612843 C681.486005,559.84801 683.502671,559.429469 685.564853,557.87779 C687.563314,556.374404 688.098291,554.341194 686.961815,552.832209 C685.905866,551.428909 684.569124,551.202841 680.947527,552.8952 C676.96391,554.726839 674.559315,554.805928 672.702301,552.340179 C670.910409,549.959118 671.692567,546.707381 674.520102,544.580384 C676.690119,542.948917 678.706086,542.398095 681.128186,542.473685 L681.125385,544.505495 C678.895148,544.418707 677.14527,544.970229 675.614564,546.121565 C673.679124,547.577358 673.246381,549.567174 674.270119,550.92848 C675.342174,552.351377 676.699222,552.562747 680.502179,550.799699" id="Fill-125" fill="#231F20"></path>
                <path d="M708.167485,541.338796 C704.234985,545.000675 698.450373,544.60873 694.786061,540.67739 C691.158162,536.784545 691.083237,530.929179 695.093463,527.193811 C697.566681,524.891839 699.86274,524.390011 702.422786,524.405408 L702.423486,526.512808 C700.25837,526.492511 698.248006,526.911051 696.398694,528.633506 C693.380697,531.442906 693.3898,535.97966 696.346177,539.151608 C699.302554,542.323556 703.884869,542.674206 706.88326,539.881604 C708.752178,538.141652 709.307462,536.279217 709.451709,533.819067 L711.38925,533.86806 C711.309424,536.631967 710.641403,539.036824 708.167485,541.338796" id="Fill-127" fill="#231F20"></path>
                <path d="M709.397652,515.402801 C706.530204,518.549553 707.006361,523.084906 710.155302,525.949598 C713.303543,528.81569 717.940476,528.861884 720.807924,525.715132 C723.675372,522.56768 723.199214,518.033726 720.050273,515.167634 C716.902032,512.301543 712.2651,512.255349 709.397652,515.402801 M722.208387,527.06174 C718.392125,531.251343 712.543091,531.073568 708.725429,527.599263 C704.907767,524.124258 704.180227,518.245096 707.996488,514.055493 C711.81345,509.866589 717.663184,510.045064 721.480146,513.519369 C725.297808,516.993674 726.024648,522.872837 722.208387,527.06174" id="Fill-129" fill="#231F20"></path>
                <polygon id="Fill-131" fill="#231F20" points="733.074229 505.50985 733.009807 505.593838 720.980531 504.999623 732.9888 514.083629 731.752192 515.715796 716.900982 504.481697 718.185907 502.785838 730.384639 503.508835 726.375114 491.970279 727.659339 490.27372 742.510548 501.50782 741.242429 503.183381 729.212452 494.083278"></polygon>
                <path d="M735.449134,481.815775 L732.918497,485.78561 L739.829782,490.187283 L742.302999,486.307035 C743.961148,483.705506 743.656547,481.115175 741.569857,479.786064 C739.303908,478.34287 737.064568,479.282136 735.449134,481.815775 M743.875019,487.403779 L741.445216,491.216836 L746.988248,494.746433 L745.858075,496.518581 L730.151182,486.515606 L733.89672,480.638543 C736.156367,477.094948 739.527282,475.962509 742.646113,477.949526 C746.05694,480.121317 746.005823,484.061755 743.875019,487.403779" id="Fill-133" fill="#231F20"></path>
                <path d="M744.110437,467.825958 L750.422323,476.100179 L754.477364,468.646241 L744.110437,467.825958 Z M762.978174,467.271637 L761.897717,469.257954 L756.530443,468.824016 L751.688342,477.726748 L754.958423,482.016437 L753.928383,483.908967 L741.501374,467.499105 L742.441785,465.769651 L762.978174,467.271637 Z" id="Fill-135" fill="#231F20"></path>
                <polygon id="Fill-137" fill="#231F20" points="753.367987 443.212634 754.194961 441.338301 771.238595 448.849631 770.562872 450.382413 751.735047 455.224323 765.710968 461.383446 764.883994 463.257079 747.83966 455.746449 748.634422 453.945605 767.028103 449.231777"></polygon>
                <polygon id="Fill-139" fill="#231F20" points="776.036581 435.724891 775.334249 437.732205 768.375348 435.304251 755.195591 438.902438 756.03727 436.492682 766.901361 433.634989 760.195944 424.589477 761.003311 422.279806 769.051772 433.287138"></polygon>
                <path d="M834.120222,367.261833 C825.578098,528.077925 691.992838,656.287762 529.009759,656.287762 C422.903683,656.287762 329.268029,601.940503 274.473515,519.640627 C268.149725,520.757668 261.900159,521.832715 255.717815,522.869267 C312.992549,613.472761 414.084968,673.773371 529.009759,673.773371 C703.931084,673.773371 846.81962,534.090769 851.904701,360.463002 C849.675164,361.328779 847.383307,362.214153 845.020726,363.120523 C841.43414,364.497927 837.790135,365.878131 834.120222,367.261833" id="Fill-141" fill="#231F20"></path>
                <path d="M494.449134,471.67611 C474.3791,476.764385 454.534539,481.619593 434.988278,486.228437 L448.219152,504.38595 L525.024042,489.232409 L502.866617,472.913533 L494.449134,471.67611 Z" id="Fill-143" fill="#FEFEFE"></path>
                <path d="M623.226115,436.636021 L609.313916,453.131271 L614.509634,467.119479 L627.629171,464.496952 L629.939234,434.674201 C627.704796,435.329307 625.467556,435.983014 623.226115,436.636021" id="Fill-145" fill="#FEFEFE"></path>
                <path d="M539.51015,408.133491 C434.838148,436.167298 334.59651,458.402431 248.811852,472.639102 C232.516765,435.318319 223.463472,394.141085 223.463472,350.886546 C223.463472,182.487735 360.530284,45.4836508 529.010179,45.4836508 C685.457297,45.4836508 814.809659,163.620522 832.488403,315.330211 C750.421273,346.559063 646.656071,379.437579 539.51015,408.133491 M49.1555498,481.544634 C49.8039641,479.475729 54.8246238,469.069611 92.5446933,448.219581 C120.490231,432.772781 160.629601,414.833637 209.084219,396.114103 C209.243872,397.117061 209.488953,398.661741 209.867778,401.048401 C210.042135,402.163342 210.231898,403.273384 210.417459,404.384825 C159.737506,423.828756 120.295567,440.400995 91.7093171,456.685575 C80.1828067,463.25204 70.7737963,469.367768 63.3527431,475.150345 C63.2645139,475.358215 63.2021933,475.531091 63.1601794,475.666871 C64.3449711,476.744718 69.9027083,480.578771 89.9433333,482.217938 C94.6187789,479.25526 100.106493,475.999324 106.549323,472.438231 C144.429045,451.499314 174.704954,438.694638 214.224618,423.5145 C218.367888,441.461344 224.011753,458.839868 231.016869,475.512893 C75.8259664,499.82323 51.7786169,483.931294 49.1555498,481.544634 M892.795839,302.266572 C890.454965,296.962728 884.254416,294.55857 878.945961,296.899737 C877.920122,297.352572 877.056736,297.738217 876.266875,298.089567 C871.524907,300.205366 869.617477,301.056444 849.318466,308.876431 C828.655336,150.611475 692.893756,27.9987416 529.010179,27.9987416 C350.884595,27.9987416 205.970289,172.845908 205.970289,350.886546 C205.970289,358.822016 206.260185,366.690995 206.826672,374.485085 C152.286343,395.360311 107.716609,415.37046 77.7046875,432.467625 C39.5441725,454.207228 24.4380787,471.031432 28.7234954,487.019954 C32.9395891,502.747414 53.7889815,509.78911 96.2545197,509.78911 C96.7579861,509.78911 97.2656539,509.788411 97.7747222,509.786311 C132.97956,509.64983 182.986591,504.52586 242.390029,494.967322 C330.979815,480.713152 435.602801,457.699731 544.946748,428.415902 C654.960816,398.950799 761.529045,365.074225 845.021146,333.025091 C877.113455,320.705445 878.902546,319.907559 884.827905,317.264036 C885.593258,316.923184 886.430735,316.548738 887.426464,316.1106 C892.733519,313.769433 895.137413,307.571116 892.795839,302.266572" id="Fill-147" fill="#231F20"></path>
                <path d="M880.346424,334.694563 C879.320584,335.146698 878.457199,335.532343 877.667338,335.884393 C872.132708,338.354341 870.461956,339.099035 838.889919,351.217809 C756.062338,383.01218 650.237755,416.647988 540.910613,445.928317 C432.244491,475.030872 328.347645,497.888916 240.451788,512.031801 C78.0478009,538.163978 53.2231944,521.766714 50.5560127,519.33876 C50.7968924,518.57027 51.6441725,516.647643 54.5508333,513.465197 C45.8133449,511.232515 39.4769502,508.045869 35.3448843,503.82407 C29.974809,511.173023 28.3159606,518.069141 30.1239583,524.81478 C34.3400521,540.54154 55.1894444,547.583937 97.6549826,547.583937 C98.1584491,547.583937 98.6661169,547.583237 99.1751852,547.581137 C135.080255,547.441857 185.06908,542.210802 243.790492,532.762148 C332.380278,518.507978 437.003264,495.494557 546.347211,466.210028 C656.361279,436.745626 762.929508,402.868351 846.421609,370.819217 C878.513918,358.500272 880.303009,357.702385 886.228368,355.058862 C886.993721,354.71731 887.831198,354.343564 888.826927,353.904726 C894.133981,351.56426 896.537876,345.365943 894.196302,340.061398 C891.855428,334.757554 885.654878,332.353396 880.346424,334.694563" id="Fill-149" fill="#231F20"></path>
            </g>
        </g>
    </g>
</svg>